<?xml version="1.0" standalone="no"?>
<!DOCTYPE svg PUBLIC "-//W3C//DTD SVG 20010904//EN"
 "http://www.w3.org/TR/2001/REC-SVG-20010904/DTD/svg10.dtd">
<svg version="1.0" xmlns="http://www.w3.org/2000/svg"
 width="512.000000pt" height="512.000000pt" viewBox="0 0 512.000000 512.000000"
 preserveAspectRatio="xMidYMid meet">
<metadata>
Created by potrace 1.11, written by Peter Selinger 2001-2013
</metadata>
<g transform="translate(0.000000,512.000000) scale(0.100000,-0.100000)"
fill="#000000" stroke="none">
<path d="M2525 5011 c-26 -16 -241 -221 -231 -221 1 0 -15 -19 -37 -42 -82
-88 -151 -180 -140 -186 15 -10 900 -8 910 1 4 5 3 11 -2 15 -6 4 -21 23 -34
42 -25 34 -77 94 -118 135 -13 12 -23 25 -23 28 0 9 -160 166 -213 208 -55 44
-70 47 -112 20z"/>
<path d="M705 4488 c-3 -7 -4 -877 -2 -1933 l2 -1920 1865 0 1865 0 0 1930 0
1930 -1863 3 c-1485 2 -1864 0 -1867 -10z"/>
<path d="M615 3024 c-44 -33 -163 -144 -239 -223 -45 -46 -92 -94 -105 -107
-13 -13 -21 -24 -18 -24 3 0 -8 -14 -24 -31 -52 -56 -49 -91 12 -157 16 -17
29 -34 29 -37 0 -9 266 -273 319 -317 25 -20 48 -35 52 -33 8 6 9 945 0 945
-3 0 -15 -7 -26 -16z"/>
<path d="M4497 3033 c-8 -13 -7 -932 1 -937 28 -17 433 398 448 459 8 31 -21
73 -129 189 -98 104 -130 136 -138 136 -5 0 -9 7 -9 15 0 8 -4 15 -8 15 -4 0
-30 20 -57 46 -67 60 -103 86 -108 77z"/>
<path d="M2110 569 c0 -15 105 -141 196 -236 28 -29 50 -53 48 -53 -3 0 21
-23 151 -143 39 -36 71 -44 94 -23 10 9 21 16 26 16 10 0 232 224 283 284 17
22 32 43 32 48 0 5 5 6 10 3 6 -3 10 -2 10 4 0 5 6 16 13 23 25 26 58 78 50
79 -33 6 -913 3 -913 -2z"/>
</g>
</svg>
